%TF.GenerationSoftware,KiCad,Pcbnew,10.0.5*%
%TF.CreationDate,2026-09-27T09:50:34+09:00*%
%TF.ProjectId,FlexLogicMini_EVB,466c6578-4c6f-4676-9963-4d696e695f45,rev?*%
%TF.SameCoordinates,Original*%
%TF.FileFunction,Soldermask,Bot*%
%TF.FilePolarity,Negative*%
%FSLAX46Y46*%
G04 Gerber Fmt 4.6, Leading zero omitted, Abs format (unit mm)*
G04 Created by KiCad (PCBNEW 10.0.5) date 2026-09-27 09:50:34*
%MOMM*%
%LPD*%
G01*
G04 APERTURE LIST*
G04 Aperture macros list*
%AMRoundRect*
0 Rectangle with rounded corners*
0 $1 Rounding radius*
0 $2 $3 $4 $5 $6 $7 $8 $9 X,Y pos of 4 corners*
0 Add a 4 corners polygon primitive as box body*
4,1,4,$2,$3,$4,$5,$6,$7,$8,$9,$2,$3,0*
0 Add four circle primitives for the rounded corners*
1,1,$1+$1,$2,$3*
1,1,$1+$1,$4,$5*
1,1,$1+$1,$6,$7*
1,1,$1+$1,$8,$9*
0 Add four rect primitives between the rounded corners*
20,1,$1+$1,$2,$3,$4,$5,0*
20,1,$1+$1,$4,$5,$6,$7,0*
20,1,$1+$1,$6,$7,$8,$9,0*
20,1,$1+$1,$8,$9,$2,$3,0*%
G04 Aperture macros list end*
%ADD10R,1.700000X1.700000*%
%ADD11O,1.700000X1.700000*%
%ADD12C,2.000000*%
%ADD13C,0.650000*%
%ADD14O,2.100000X1.000000*%
%ADD15O,1.800000X1.000000*%
%ADD16R,3.300000X3.300000*%
%ADD17C,1.600000*%
%ADD18R,3.200000X3.200000*%
%ADD19RoundRect,0.140000X-0.140000X-0.170000X0.140000X-0.170000X0.140000X0.170000X-0.140000X0.170000X0*%
%ADD20RoundRect,0.160000X0.160000X-0.197500X0.160000X0.197500X-0.160000X0.197500X-0.160000X-0.197500X0*%
%ADD21RoundRect,0.140000X0.170000X-0.140000X0.170000X0.140000X-0.170000X0.140000X-0.170000X-0.140000X0*%
%ADD22RoundRect,0.237500X-0.237500X0.300000X-0.237500X-0.300000X0.237500X-0.300000X0.237500X0.300000X0*%
%ADD23RoundRect,0.140000X0.140000X0.170000X-0.140000X0.170000X-0.140000X-0.170000X0.140000X-0.170000X0*%
%ADD24RoundRect,0.140000X-0.170000X0.140000X-0.170000X-0.140000X0.170000X-0.140000X0.170000X0.140000X0*%
%ADD25RoundRect,0.135000X-0.185000X0.135000X-0.185000X-0.135000X0.185000X-0.135000X0.185000X0.135000X0*%
%ADD26RoundRect,0.135000X0.135000X0.185000X-0.135000X0.185000X-0.135000X-0.185000X0.135000X-0.185000X0*%
%ADD27RoundRect,0.160000X-0.197500X-0.160000X0.197500X-0.160000X0.197500X0.160000X-0.197500X0.160000X0*%
%ADD28O,1.549999X0.299999*%
%ADD29RoundRect,0.135000X0.185000X-0.135000X0.185000X0.135000X-0.185000X0.135000X-0.185000X-0.135000X0*%
%ADD30R,0.600000X1.000000*%
%ADD31RoundRect,0.135000X-0.135000X-0.185000X0.135000X-0.185000X0.135000X0.185000X-0.135000X0.185000X0*%
%ADD32R,1.100000X0.300000*%
%ADD33R,0.250000X1.650000*%
%ADD34R,2.300000X1.200000*%
%ADD35R,1.800000X0.700000*%
%ADD36R,2.000000X1.193800*%
%ADD37RoundRect,0.237500X-0.300000X-0.237500X0.300000X-0.237500X0.300000X0.237500X-0.300000X0.237500X0*%
%ADD38RoundRect,0.150000X-0.150000X0.512500X-0.150000X-0.512500X0.150000X-0.512500X0.150000X0.512500X0*%
%ADD39R,0.599999X1.500000*%
%ADD40RoundRect,0.150000X0.150000X-0.450000X0.150000X0.450000X-0.150000X0.450000X-0.150000X-0.450000X0*%
%ADD41RoundRect,0.084000X-0.088500X-0.084000X0.088500X-0.084000X0.088500X0.084000X-0.088500X0.084000X0*%
%ADD42RoundRect,0.165000X-0.165000X-0.235000X0.165000X-0.235000X0.165000X0.235000X-0.165000X0.235000X0*%
%ADD43R,0.304800X0.977900*%
G04 APERTURE END LIST*
D10*
%TO.C,J6*%
X145034000Y-118491000D03*
D11*
X145034000Y-115951000D03*
X147574000Y-118491000D03*
X147574000Y-115951000D03*
X150114000Y-118491000D03*
X150114000Y-115951000D03*
%TD*%
D12*
%TO.C,J3*%
X158240000Y-75184000D03*
X153238000Y-75184000D03*
%TD*%
D10*
%TO.C,J8*%
X124333000Y-112141000D03*
D11*
X124333000Y-109601000D03*
X126873000Y-112141000D03*
X126873000Y-109601000D03*
X129413000Y-112141000D03*
X129413000Y-109601000D03*
%TD*%
D10*
%TO.C,J9*%
X124333000Y-118364000D03*
D11*
X124333000Y-115824000D03*
X126873000Y-118364000D03*
X126873000Y-115824000D03*
X129413000Y-118364000D03*
X129413000Y-115824000D03*
%TD*%
D12*
%TO.C,J2*%
X147496000Y-75184000D03*
X142494000Y-75184000D03*
%TD*%
D13*
%TO.C,J1*%
X118180000Y-93000000D03*
X118180000Y-98790000D03*
D14*
X118680000Y-91580000D03*
X118680000Y-100220000D03*
D15*
X114500000Y-100220000D03*
X114500000Y-91580000D03*
%TD*%
D10*
%TO.C,J7*%
X153797000Y-118491000D03*
D11*
X153797000Y-115951000D03*
X156337000Y-118491000D03*
X156337000Y-115951000D03*
X158877000Y-118491000D03*
X158877000Y-115951000D03*
%TD*%
D16*
%TO.C,IC4*%
X151653000Y-103398000D03*
%TD*%
D12*
%TO.C,J5*%
X136748000Y-75184000D03*
X131746000Y-75184000D03*
%TD*%
D10*
%TO.C,J10*%
X113500000Y-73000000D03*
D11*
X116040000Y-73000000D03*
X113500000Y-75540000D03*
X116040000Y-75540000D03*
X113500000Y-78080000D03*
X116040000Y-78080000D03*
%TD*%
D17*
%TO.C,SW1*%
X114173000Y-104140000D03*
X116713000Y-104140000D03*
X114173000Y-111760000D03*
X116713000Y-111760000D03*
%TD*%
D12*
%TO.C,J4*%
X126008000Y-75184000D03*
X121006000Y-75184000D03*
%TD*%
D10*
%TO.C,J11*%
X159177000Y-96520000D03*
D11*
X159177000Y-99060000D03*
X159177000Y-101600000D03*
X159177000Y-104140000D03*
%TD*%
D18*
%TO.C,U10*%
X138557000Y-107442000D03*
%TD*%
D19*
%TO.C,C19*%
X133168000Y-80459000D03*
X134128000Y-80459000D03*
%TD*%
D20*
%TO.C,L4*%
X121954225Y-90424000D03*
X121954225Y-89229000D03*
%TD*%
D21*
%TO.C,C35*%
X147738000Y-101929000D03*
X147738000Y-100969000D03*
%TD*%
D22*
%TO.C,C31*%
X126028000Y-92249000D03*
X126028000Y-93974000D03*
%TD*%
D19*
%TO.C,C42*%
X126808000Y-88169000D03*
X127768000Y-88169000D03*
%TD*%
D23*
%TO.C,C12*%
X133798000Y-76750000D03*
X132838000Y-76750000D03*
%TD*%
D24*
%TO.C,C68*%
X142708000Y-101819000D03*
X142708000Y-102779000D03*
%TD*%
D23*
%TO.C,C6*%
X144508000Y-76750000D03*
X143548000Y-76750000D03*
%TD*%
D19*
%TO.C,C59*%
X148858000Y-89859000D03*
X149818000Y-89859000D03*
%TD*%
D25*
%TO.C,R5*%
X119408000Y-74290000D03*
X119408000Y-75310000D03*
%TD*%
D19*
%TO.C,C11*%
X124018000Y-76750000D03*
X124978000Y-76750000D03*
%TD*%
%TO.C,C32*%
X141208000Y-88999000D03*
X142168000Y-88999000D03*
%TD*%
D25*
%TO.C,R11*%
X155268000Y-73790000D03*
X155268000Y-74810000D03*
%TD*%
D26*
%TO.C,R44*%
X146388000Y-105429000D03*
X145368000Y-105429000D03*
%TD*%
D27*
%TO.C,L1*%
X122174000Y-99441000D03*
X123369000Y-99441000D03*
%TD*%
D28*
%TO.C,U1*%
X126507999Y-80389002D03*
X126507999Y-79889003D03*
X126507999Y-79389001D03*
X126507999Y-78889002D03*
X126507999Y-78389000D03*
X131158000Y-78389000D03*
X131158000Y-78889002D03*
X131158000Y-79389001D03*
X131158000Y-79889003D03*
X131158000Y-80389002D03*
%TD*%
D29*
%TO.C,R34*%
X138088000Y-94089000D03*
X138088000Y-93069000D03*
%TD*%
D25*
%TO.C,R12*%
X156218000Y-73790000D03*
X156218000Y-74810000D03*
%TD*%
D21*
%TO.C,C14*%
X120598000Y-92799000D03*
X120598000Y-91839000D03*
%TD*%
%TO.C,C24*%
X125988000Y-104069000D03*
X125988000Y-103109000D03*
%TD*%
D29*
%TO.C,R8*%
X138378000Y-75310000D03*
X138378000Y-74290000D03*
%TD*%
D30*
%TO.C,IC2*%
X124333000Y-103124000D03*
X123383000Y-103124000D03*
X122433000Y-103124000D03*
X122433000Y-100524000D03*
X124333000Y-100524000D03*
%TD*%
D29*
%TO.C,R32*%
X142728000Y-93969000D03*
X142728000Y-92949000D03*
%TD*%
D26*
%TO.C,R38*%
X141368000Y-87399000D03*
X140348000Y-87399000D03*
%TD*%
D23*
%TO.C,C8*%
X155268000Y-76750000D03*
X154308000Y-76750000D03*
%TD*%
%TO.C,C66*%
X115668000Y-114299000D03*
X114708000Y-114299000D03*
%TD*%
D25*
%TO.C,R7*%
X130098000Y-74290000D03*
X130098000Y-75310000D03*
%TD*%
D19*
%TO.C,C17*%
X133168000Y-79529000D03*
X134128000Y-79529000D03*
%TD*%
%TO.C,C51*%
X137888000Y-84319000D03*
X138848000Y-84319000D03*
%TD*%
%TO.C,C41*%
X124948000Y-88169000D03*
X125908000Y-88169000D03*
%TD*%
D31*
%TO.C,R50*%
X132718000Y-105539000D03*
X133738000Y-105539000D03*
%TD*%
D25*
%TO.C,R48*%
X118548000Y-114429000D03*
X118548000Y-115449000D03*
%TD*%
D23*
%TO.C,C30*%
X140028000Y-71609000D03*
X139068000Y-71609000D03*
%TD*%
%TO.C,C5*%
X134727000Y-75710000D03*
X133767000Y-75710000D03*
%TD*%
D26*
%TO.C,R18*%
X117958000Y-97669000D03*
X116938000Y-97669000D03*
%TD*%
D32*
%TO.C,IC5*%
X141121000Y-113526000D03*
X141121000Y-113026000D03*
X141121000Y-112526000D03*
X141121000Y-112026000D03*
X144121000Y-112026000D03*
X144121000Y-112526000D03*
X144121000Y-113026000D03*
X144121000Y-113526000D03*
D33*
X142621000Y-112776000D03*
%TD*%
D25*
%TO.C,R15*%
X133798000Y-73790000D03*
X133798000Y-74810000D03*
%TD*%
D27*
%TO.C,L2*%
X127100500Y-104199000D03*
X128295500Y-104199000D03*
%TD*%
D21*
%TO.C,C25*%
X157188000Y-98259000D03*
X157188000Y-97299000D03*
%TD*%
D26*
%TO.C,R47*%
X117578000Y-114289000D03*
X116558000Y-114289000D03*
%TD*%
D34*
%TO.C,L3*%
X128258000Y-94189000D03*
X128258000Y-92239000D03*
%TD*%
D25*
%TO.C,R39*%
X152508000Y-98489000D03*
X152508000Y-99509000D03*
%TD*%
D28*
%TO.C,U2*%
X147789001Y-80389002D03*
X147789001Y-79889003D03*
X147789001Y-79389001D03*
X147789001Y-78889002D03*
X147789001Y-78389000D03*
X152439002Y-78389000D03*
X152439002Y-78889002D03*
X152439002Y-79389001D03*
X152439002Y-79889003D03*
X152439002Y-80389002D03*
%TD*%
D35*
%TO.C,J12*%
X155958000Y-87039000D03*
X155958000Y-88039001D03*
X155958000Y-89039001D03*
D36*
X159858000Y-85739001D03*
X159858000Y-90339001D03*
%TD*%
D20*
%TO.C,L6*%
X125002225Y-90386500D03*
X125002225Y-89191500D03*
%TD*%
D37*
%TO.C,C29*%
X127958000Y-100339000D03*
X129683000Y-100339000D03*
%TD*%
D19*
%TO.C,C20*%
X154228000Y-80599000D03*
X155188000Y-80599000D03*
%TD*%
D23*
%TO.C,C55*%
X147668000Y-113569000D03*
X146708000Y-113569000D03*
%TD*%
D29*
%TO.C,R6*%
X127638000Y-75310000D03*
X127638000Y-74290000D03*
%TD*%
D26*
%TO.C,R43*%
X140400500Y-110139000D03*
X139380500Y-110139000D03*
%TD*%
D29*
%TO.C,R40*%
X139380000Y-89055500D03*
X139380000Y-88035500D03*
%TD*%
D19*
%TO.C,C13*%
X134738000Y-76750000D03*
X135698000Y-76750000D03*
%TD*%
D38*
%TO.C,U4*%
X126508000Y-96339000D03*
X127458000Y-96339000D03*
X128408000Y-96339000D03*
X128408000Y-98614000D03*
X126508000Y-98614000D03*
%TD*%
D19*
%TO.C,C37*%
X155368000Y-104039000D03*
X156328000Y-104039000D03*
%TD*%
D26*
%TO.C,R55*%
X117503500Y-102616000D03*
X116483500Y-102616000D03*
%TD*%
D25*
%TO.C,R3*%
X151578000Y-74290000D03*
X151578000Y-75310000D03*
%TD*%
D21*
%TO.C,C15*%
X124358000Y-99219000D03*
X124358000Y-98259000D03*
%TD*%
D25*
%TO.C,R1*%
X140828000Y-74290000D03*
X140828000Y-75310000D03*
%TD*%
D29*
%TO.C,R4*%
X159908000Y-75310000D03*
X159908000Y-74290000D03*
%TD*%
D20*
%TO.C,L7*%
X126873000Y-90342725D03*
X126873000Y-89147725D03*
%TD*%
D23*
%TO.C,C10*%
X123028000Y-76750000D03*
X122068000Y-76750000D03*
%TD*%
D24*
%TO.C,C56*%
X140468000Y-98699000D03*
X140468000Y-99659000D03*
%TD*%
D35*
%TO.C,J13*%
X155958000Y-109948999D03*
X155958000Y-110949000D03*
X155958000Y-111949000D03*
D36*
X159858000Y-108649000D03*
X159858000Y-113249000D03*
%TD*%
D20*
%TO.C,L8*%
X129159000Y-90424000D03*
X129159000Y-89229000D03*
%TD*%
D31*
%TO.C,R23*%
X145018000Y-80549000D03*
X146038000Y-80549000D03*
%TD*%
D24*
%TO.C,C48*%
X148928000Y-93829000D03*
X148928000Y-94789000D03*
%TD*%
D31*
%TO.C,R27*%
X147548000Y-103359000D03*
X148568000Y-103359000D03*
%TD*%
%TO.C,R51*%
X132718000Y-106539000D03*
X133738000Y-106539000D03*
%TD*%
D19*
%TO.C,C9*%
X156208000Y-76750000D03*
X157168000Y-76750000D03*
%TD*%
D29*
%TO.C,R29*%
X125288000Y-98986500D03*
X125288000Y-97966500D03*
%TD*%
D19*
%TO.C,C77*%
X152654000Y-97339000D03*
X153614000Y-97339000D03*
%TD*%
D24*
%TO.C,C57*%
X145438000Y-113550000D03*
X145438000Y-114510000D03*
%TD*%
%TO.C,C67*%
X140568000Y-101639000D03*
X140568000Y-102599000D03*
%TD*%
D26*
%TO.C,R22*%
X124608000Y-80739000D03*
X123588000Y-80739000D03*
%TD*%
D25*
%TO.C,R16*%
X134748000Y-73790000D03*
X134748000Y-74810000D03*
%TD*%
D39*
%TO.C,U9*%
X115189000Y-115824000D03*
X117088999Y-115824000D03*
X116139001Y-117723999D03*
%TD*%
D29*
%TO.C,R20*%
X120968000Y-103374000D03*
X120968000Y-102354000D03*
%TD*%
D25*
%TO.C,R14*%
X123998000Y-73790000D03*
X123998000Y-74810000D03*
%TD*%
D23*
%TO.C,C62*%
X115898000Y-119209000D03*
X114938000Y-119209000D03*
%TD*%
D25*
%TO.C,R21*%
X160558000Y-102179000D03*
X160558000Y-103199000D03*
%TD*%
D29*
%TO.C,R2*%
X149178000Y-75310000D03*
X149178000Y-74290000D03*
%TD*%
D23*
%TO.C,C3*%
X156219000Y-75710000D03*
X155259000Y-75710000D03*
%TD*%
D21*
%TO.C,C60*%
X142108000Y-84359000D03*
X142108000Y-83399000D03*
%TD*%
D40*
%TO.C,U5*%
X141285000Y-93017000D03*
X140335000Y-93017000D03*
X139385000Y-93017000D03*
X139385000Y-90117000D03*
X140335000Y-90117000D03*
X141285000Y-90117000D03*
%TD*%
D19*
%TO.C,C53*%
X134458000Y-89259000D03*
X135418000Y-89259000D03*
%TD*%
D25*
%TO.C,R9*%
X144508000Y-73790000D03*
X144508000Y-74810000D03*
%TD*%
D23*
%TO.C,C74*%
X137768000Y-102019000D03*
X136808000Y-102019000D03*
%TD*%
%TO.C,C23*%
X124328000Y-104709000D03*
X123368000Y-104709000D03*
%TD*%
%TO.C,C4*%
X123987000Y-75710000D03*
X123027000Y-75710000D03*
%TD*%
%TO.C,C2*%
X145480000Y-75710000D03*
X144520000Y-75710000D03*
%TD*%
D31*
%TO.C,R52*%
X114070500Y-105664000D03*
X115090500Y-105664000D03*
%TD*%
D22*
%TO.C,C34*%
X124498000Y-92259000D03*
X124498000Y-93984000D03*
%TD*%
D24*
%TO.C,C40*%
X147193000Y-84550500D03*
X147193000Y-85510500D03*
%TD*%
D26*
%TO.C,R17*%
X118008000Y-94599000D03*
X116988000Y-94599000D03*
%TD*%
%TO.C,R42*%
X141912500Y-114451000D03*
X140892500Y-114451000D03*
%TD*%
D41*
%TO.C,IC3*%
X138823000Y-73147000D03*
X138823000Y-72547000D03*
X140323000Y-72547000D03*
X140323000Y-73147000D03*
D42*
X139573000Y-72847000D03*
%TD*%
D20*
%TO.C,L5*%
X123986225Y-90424000D03*
X123986225Y-89229000D03*
%TD*%
D29*
%TO.C,R28*%
X126358000Y-100979000D03*
X126358000Y-99959000D03*
%TD*%
D19*
%TO.C,C1*%
X127948000Y-113769000D03*
X128908000Y-113769000D03*
%TD*%
%TO.C,C18*%
X154208000Y-79619000D03*
X155168000Y-79619000D03*
%TD*%
D23*
%TO.C,C58*%
X144898000Y-98669000D03*
X143938000Y-98669000D03*
%TD*%
D37*
%TO.C,C27*%
X127958000Y-101839000D03*
X129683000Y-101839000D03*
%TD*%
D19*
%TO.C,C43*%
X129118000Y-88229000D03*
X130078000Y-88229000D03*
%TD*%
D25*
%TO.C,R13*%
X123058000Y-73790000D03*
X123058000Y-74810000D03*
%TD*%
D26*
%TO.C,R46*%
X141958000Y-104869000D03*
X140938000Y-104869000D03*
%TD*%
D19*
%TO.C,C7*%
X145478000Y-76750000D03*
X146438000Y-76750000D03*
%TD*%
D26*
%TO.C,R36*%
X140871500Y-94149000D03*
X139851500Y-94149000D03*
%TD*%
D25*
%TO.C,R24*%
X157218000Y-99529000D03*
X157218000Y-100549000D03*
%TD*%
%TO.C,R10*%
X145468000Y-73790000D03*
X145468000Y-74810000D03*
%TD*%
D43*
%TO.C,U11*%
X152958000Y-92939000D03*
X153458002Y-92939000D03*
X153958001Y-92939000D03*
X154458002Y-92939000D03*
X154958002Y-92939000D03*
X155458000Y-92939000D03*
X155958002Y-92939000D03*
X156458001Y-92939000D03*
X156458004Y-96025100D03*
X155958002Y-96025100D03*
X155458003Y-96025100D03*
X154958002Y-96025100D03*
X154458002Y-96025100D03*
X153958004Y-96025100D03*
X153458002Y-96025100D03*
X152958003Y-96025100D03*
%TD*%
M02*
