M48
; DRILL file KiCad 10.0.5 date 2026-09-27T09:50:34
; FORMAT={-:-/ absolute / inch / decimal}
; #@! TF.CreationDate,2026-09-27T09:50:34+09:00
; #@! TF.GenerationSoftware,Kicad,Pcbnew,10.0.5
; #@! TF.FileFunction,Plated,1,8,PTH
FMAT,2
INCH
; #@! TA.AperFunction,Plated,PTH,ViaDrill
T1C0.0118
; #@! TA.AperFunction,Plated,PTH,ComponentDrill
T2C0.0236
; #@! TA.AperFunction,Plated,PTH,ComponentDrill
T3C0.0394
; #@! TA.AperFunction,Plated,PTH,ComponentDrill
T4C0.0512
; #@! TA.AperFunction,Plated,PTH,ComponentDrill
T5C0.0787
%
G90
G05
T1
X4.41Y-2.815
X4.41Y-2.9
X4.41Y-3.215
X4.41Y-3.315
X4.41Y-3.415
X4.41Y-3.4976
X4.41Y-3.62
X4.41Y-3.715
X4.41Y-3.815
X4.41Y-3.915
X4.41Y-4.015
X4.41Y-4.115
X4.41Y-4.215
X4.41Y-4.315
X4.41Y-4.415
X4.41Y-4.515
X4.41Y-4.62
X4.41Y-4.715
X4.4117Y-3.1472
X4.4117Y-3.2614
X4.43Y-4.745
X4.4457Y-3.5312
X4.4511Y-3.159
X4.459Y-3.2614
X4.46Y-3.215
X4.485Y-3.44
X4.485Y-3.66
X4.485Y-3.715
X4.485Y-3.815
X4.485Y-3.89
X4.49Y-4.27
X4.4944Y-3.159
X4.495Y-3.325
X4.495Y-4.315
X4.4966Y-4.6546
X4.5161Y-4.5
X4.522Y-3.2614
X4.53Y-4.745
X4.5377Y-3.4464
X4.5377Y-3.4976
X4.54Y-2.815
X4.54Y-3.655
X4.54Y-3.72
X4.54Y-3.89
X4.545Y-3.815
X4.545Y-4.335
X4.55Y-4.23
X4.555Y-3.215
X4.555Y-3.375
X4.581Y-3.2614
X4.585Y-4.705
X4.5889Y-4.4996
X4.595Y-3.15
X4.6128Y-3.0328
X4.615Y-3.13
X4.6261Y-4.04
X4.6291Y-4.4996
X4.63Y-4.745
X4.635Y-3.5055
X4.635Y-3.53
X4.64Y-2.815
X4.64Y-2.9
X4.645Y-3.845
X4.645Y-4.065
X4.645Y-4.14
X4.645Y-4.235
X4.646Y-3.725
X4.648Y-3.3756
X4.65Y-3.215
X4.65Y-3.315
X4.6558Y-4.0409
X4.66Y-4.57
X4.66Y-4.6546
X4.6676Y-3.096
X4.6724Y-3.505
X4.6873Y-3.1511
X4.6913Y-2.848
X4.6913Y-3.3559
X4.695Y-3.12
X4.695Y-4.335
X4.695Y-4.4
X4.6965Y-3.6815
X4.6969Y-3.8701
X4.7011Y-2.9248
X4.707Y-3.2653
X4.715Y-3.01
X4.715Y-3.18
X4.715Y-3.485
X4.715Y-3.53
X4.715Y-4.265
X4.7188Y-4.0283
X4.7228Y-3.3756
X4.7228Y-4.1472
X4.73Y-4.745
X4.735Y-3.68
X4.735Y-3.87
X4.74Y-2.815
X4.7424Y-3.2102
X4.745Y-3.7
X4.745Y-3.725
X4.75Y-3.315
X4.755Y-3.83
X4.755Y-3.855
X4.755Y-3.89
X4.755Y-3.915
X4.7598Y-4.1161
X4.76Y-4.695
X4.765Y-3.68
X4.7665Y-3.712
X4.77Y-3.025
X4.77Y-3.475
X4.77Y-3.5
X4.78Y-3.205
X4.7818Y-3.3283
X4.785Y-3.6995
X4.785Y-3.725
X4.785Y-3.765
X4.785Y-3.83
X4.79Y-3.085
X4.7936Y-2.8401
X4.795Y-3.355
X4.795Y-3.475
X4.795Y-4.56
X4.795Y-4.64
X4.8Y-3.87
X4.8013Y-3.513
X4.805Y-4.43
X4.8133Y-3.1118
X4.8133Y-4.1511
X4.815Y-2.915
X4.82Y-3.475
X4.82Y-3.5
X4.825Y-3.765
X4.825Y-3.83
X4.825Y-3.885
X4.8251Y-3.7299
X4.83Y-4.745
X4.84Y-2.815
X4.84Y-3.115
X4.84Y-4.285
X4.855Y-3.465
X4.855Y-3.49
X4.855Y-3.515
X4.857Y-4.1224
X4.8606Y-3.7653
X4.875Y-3.145
X4.8751Y-3.4074
X4.88Y-3.465
X4.88Y-3.49
X4.8813Y-3.513
X4.892Y-2.8401
X4.8948Y-4.1224
X4.9196Y-3.4708
X4.9213Y-3.5115
X4.9231Y-2.915
X4.93Y-4.745
X4.9314Y-3.205
X4.9354Y-4.0252
X4.94Y-2.815
X4.94Y-4.14
X4.945Y-4.28
X4.96Y-3.26
X4.9602Y-4.0972
X4.965Y-3.025
X4.9669Y-3.2063
X4.975Y-3.36
X4.985Y-4.24
X4.9865Y-4.0252
X4.9924Y-3.4712
X4.9944Y-2.8401
X4.995Y-3.51
X4.9983Y-3.0527
X5.0023Y-3.2614
X5.0062Y-3.2063
X5.01Y-3.34
X5.01Y-3.38
X5.015Y-3.01
X5.0251Y-2.9256
X5.03Y-4.745
X5.0338Y-3.0763
X5.0338Y-3.1078
X5.0377Y-3.0291
X5.04Y-2.815
X5.04Y-2.865
X5.0417Y-3.2063
X5.0456Y-2.9976
X5.0495Y-3.0527
X5.05Y-3.26
X5.05Y-3.36
X5.055Y-3.125
X5.0574Y-3.0921
X5.06Y-4.195
X5.0602Y-3.4744
X5.0602Y-3.5141
X5.07Y-2.925
X5.08Y-3.06
X5.081Y-3.2063
X5.085Y-3.1078
X5.085Y-3.515
X5.0857Y-4.1043
X5.086Y-3.475
X5.0928Y-3.2614
X5.1Y-3.315
X5.1Y-4.225
X5.1046Y-2.8401
X5.122Y-2.9248
X5.1283Y-3.2614
X5.14Y-2.815
X5.14Y-4.125
X5.145Y-3.71
X5.165Y-3.41
X5.165Y-3.5
X5.165Y-4.745
X5.1735Y-3.5311
X5.175Y-3.19
X5.1751Y-3.6307
X5.18Y-3.466
X5.18Y-4.19
X5.18Y-4.595
X5.185Y-3.75
X5.1905Y-3.0354
X5.1925Y-4.2725
X5.195Y-3.665
X5.1956Y-4.348
X5.2031Y-2.8401
X5.2137Y-4.3846
X5.2251Y-4.1944
X5.2319Y-2.915
X5.24Y-2.815
X5.24Y-4.67
X5.241Y-3.205
X5.241Y-3.235
X5.2428Y-3.1677
X5.245Y-4.445
X5.2649Y-4.2661
X5.265Y-4.155
X5.266Y-4.195
X5.2716Y-4.1163
X5.28Y-3.41
X5.2895Y-3.6245
X5.2928Y-3.6858
X5.2928Y-3.7236
X5.294Y-3.5133
X5.295Y-3.86
X5.295Y-4.405
X5.3Y-3.985
X5.305Y-2.825
X5.305Y-2.855
X5.305Y-3.775
X5.31Y-4.745
X5.315Y-3.945
X5.315Y-4.045
X5.33Y-3.115
X5.335Y-3.075
X5.34Y-4.665
X5.3409Y-3.2574
X5.3421Y-2.915
X5.345Y-3.41
X5.3487Y-3.8126
X5.355Y-4.04
X5.3588Y-4.3218
X5.36Y-4.175
X5.36Y-4.21
X5.36Y-4.26
X5.36Y-4.295
X5.3637Y-4.131
X5.365Y-3.835
X5.37Y-3.945
X5.375Y-3.78
X5.375Y-4.69
X5.38Y-4.15
X5.385Y-3.025
X5.3873Y-4.048
X5.3881Y-3.2063
X5.39Y-3.815
X5.39Y-3.8604
X5.392Y-3.0724
X5.392Y-3.3165
X5.4Y-3.36
X5.4038Y-3.7112
X5.41Y-3.78
X5.4111Y-4.1439
X5.4145Y-4.3145
X5.4203Y-3.7513
X5.424Y-4.015
X5.4271Y-4.048
X5.4275Y-3.2063
X5.429Y-3.32
X5.43Y-3.63
X5.44Y-3.435
X5.44Y-4.745
X5.45Y-3.075
X5.45Y-3.46
X5.4511Y-3.0094
X5.4645Y-4.4295
X5.4665Y-3.3196
X5.4683Y-3.435
X5.475Y-3.595
X5.48Y-4.135
X5.4905Y-4.3362
X5.4948Y-4.5464
X5.4948Y-4.5881
X5.4976Y-2.9039
X5.5015Y-4.4295
X5.51Y-3.325
X5.51Y-3.61
X5.5102Y-3.2063
X5.5129Y-2.8193
X5.5239Y-4.1305
X5.53Y-3.885
X5.5326Y-3.2574
X5.535Y-3.945
X5.535Y-4.04
X5.5382Y-3.0572
X5.5444Y-2.9248
X5.545Y-4.69
X5.5456Y-3.0094
X5.5464Y-2.8145
X5.55Y-4.3151
X5.55Y-4.21
X5.555Y-4.185
X5.555Y-4.265
X5.555Y-4.745
X5.5577Y-3.4773
X5.5775Y-4.6421
X5.5814Y-4.0441
X5.585Y-4.3598
X5.585Y-3.945
X5.5928Y-3.2063
X5.596Y-3.321
X5.5968Y-2.8401
X5.5972Y-3.5039
X5.6086Y-3.0287
X5.6117Y-3.4366
X5.62Y-3.7
X5.62Y-3.945
X5.62Y-4.045
X5.63Y-3.32
X5.63Y-3.45
X5.64Y-2.815
X5.64Y-4.12
X5.6417Y-4.2645
X5.6432Y-3.1543
X5.645Y-4.695
X5.65Y-3.07
X5.65Y-3.47
X5.65Y-3.56
X5.655Y-2.915
X5.655Y-4.585
X5.6676Y-3.2063
X5.67Y-3.665
X5.6856Y-4.3674
X5.69Y-4.03
X5.6913Y-2.8401
X5.695Y-3.515
X5.695Y-3.6
X5.695Y-4.065
X5.7Y-3.435
X5.704Y-3.885
X5.705Y-3.73
X5.7129Y-3.145
X5.7129Y-3.2716
X5.7228Y-4.1905
X5.7231Y-4.1507
X5.7306Y-3.2063
X5.735Y-3.57
X5.735Y-3.61
X5.735Y-4.745
X5.74Y-2.815
X5.74Y-3.475
X5.74Y-4.05
X5.76Y-2.915
X5.76Y-3.3
X5.76Y-3.3721
X5.76Y-3.41
X5.76Y-4.25
X5.7617Y-3.3385
X5.7627Y-4.1511
X5.765Y-4.015
X5.765Y-4.28
X5.765Y-4.71
X5.7759Y-4.4712
X5.7897Y-2.8401
X5.7897Y-3.2063
X5.795Y-3.3
X5.795Y-3.3253
X5.8058Y-3.0287
X5.8086Y-4.0708
X5.8133Y-3.2063
X5.8156Y-4.0118
X5.8262Y-4.1362
X5.83Y-4.28
X5.84Y-2.815
X5.84Y-2.865
X5.84Y-4.35
X5.8409Y-3.0488
X5.8409Y-3.2063
X5.8409Y-3.9163
X5.86Y-3.5371
X5.8606Y-3.0055
X5.8606Y-4.5228
X5.8633Y-3.6941
X5.8635Y-3.7321
X5.8645Y-3.2141
X5.865Y-3.32
X5.865Y-3.4
X5.865Y-4.6974
X5.8684Y-3.033
X5.87Y-3.435
X5.8724Y-3.1551
X5.8731Y-2.9248
X5.8763Y-3.075
X5.8802Y-3.2771
X5.885Y-4.465
X5.89Y-3.405
X5.895Y-3.36
X5.896Y-2.8401
X5.896Y-3.0173
X5.896Y-3.2023
X5.8991Y-3.9098
X5.8999Y-3.0488
X5.9Y-3.5
X5.9056Y-4.2671
X5.9157Y-2.911
X5.9157Y-2.9661
X5.9157Y-3.0724
X5.925Y-4.43
X5.9275Y-3.2771
X5.93Y-3.005
X5.93Y-3.16
X5.9314Y-3.037
X5.9338Y-4.214
X5.9356Y-3.9108
X5.9393Y-2.8637
X5.94Y-2.815
X5.94Y-4.51
X5.941Y-3.665
X5.945Y-3.19
X5.9456Y-4.2382
X5.9607Y-4.2158
X5.965Y-3.815
X5.965Y-3.84
X5.9656Y-3.8768
X5.9676Y-2.9248
X5.9787Y-3.2771
X5.99Y-4.74
X5.9905Y-2.8401
X5.995Y-3.33
X6.0Y-4.61
X6.0001Y-4.2141
X6.0023Y-3.2102
X6.0046Y-3.9181
X6.005Y-3.4
X6.0062Y-3.6275
X6.0085Y-3.8319
X6.0176Y-4.2444
X6.022Y-3.2771
X6.0259Y-3.596
X6.0266Y-4.5062
X6.0346Y-4.3303
X6.035Y-3.0322
X6.04Y-2.815
X6.045Y-3.8777
X6.0478Y-3.8322
X6.05Y-4.74
X6.0535Y-3.6078
X6.055Y-4.4679
X6.055Y-4.615
X6.0613Y-3.6315
X6.0645Y-4.413
X6.0653Y-3.2141
X6.0653Y-3.7417
X6.072Y-3.1732
X6.08Y-2.915
X6.08Y-3.33
X6.0889Y-2.8441
X6.0968Y-3.74
X6.109Y-3.1346
X6.1098Y-3.1732
X6.1121Y-3.9925
X6.1125Y-3.8401
X6.1157Y-4.1228
X6.1176Y-4.0958
X6.1204Y-3.2141
X6.125Y-3.38
X6.125Y-4.29
X6.1283Y-4.1598
X6.13Y-4.515
X6.1322Y-3.7378
X6.135Y-3.5552
X6.1372Y-4.0374
X6.14Y-2.815
X6.1401Y-3.4661
X6.1401Y-3.5055
X6.1414Y-3.7036
X6.1535Y-4.1228
X6.1546Y-4.096
X6.155Y-3.285
X6.155Y-4.23
X6.1558Y-3.8244
X6.16Y-3.75
X6.16Y-3.995
X6.1637Y-3.1511
X6.17Y-3.215
X6.185Y-2.915
X6.185Y-3.095
X6.19Y-3.325
X6.1913Y-2.8441
X6.1952Y-3.6354
X6.2Y-4.425
X6.2023Y-3.5973
X6.2109Y-3.2141
X6.2109Y-3.2614
X6.215Y-3.16
X6.215Y-4.74
X6.23Y-3.025
X6.2306Y-3.0803
X6.235Y-4.455
X6.24Y-2.815
X6.245Y-4.165
X6.245Y-4.215
X6.245Y-4.315
X6.245Y-4.365
X6.25Y-3.615
X6.255Y-3.215
X6.255Y-3.285
X6.26Y-3.465
X6.265Y-3.05
X6.27Y-2.8519
X6.27Y-3.725
X6.285Y-3.095
X6.285Y-4.165
X6.285Y-4.215
X6.285Y-4.265
X6.285Y-4.315
X6.285Y-4.365
X6.295Y-4.48
X6.2956Y-2.9248
X6.2976Y-2.8834
X6.2976Y-3.2141
X6.2976Y-3.2574
X6.3Y-3.16
X6.305Y-4.74
X6.34Y-2.815
X6.34Y-2.915
X6.34Y-3.015
X6.34Y-3.115
X6.34Y-3.215
X6.34Y-3.315
X6.34Y-3.415
X6.34Y-3.515
X6.34Y-3.615
X6.34Y-3.715
X6.34Y-3.815
X6.34Y-3.915
X6.34Y-3.995
X6.34Y-4.115
X6.34Y-4.215
X6.34Y-4.315
X6.34Y-4.415
X6.34Y-4.515
X6.34Y-4.615
X6.34Y-4.715
X6.3409Y-3.2614
T3
X4.4685Y-2.874
X4.4685Y-2.974
X4.4685Y-3.074
X4.495Y-4.1
X4.495Y-4.4
X4.5685Y-2.874
X4.5685Y-2.974
X4.5685Y-3.074
X4.595Y-4.1
X4.595Y-4.4
X4.895Y-4.315
X4.895Y-4.415
X4.895Y-4.56
X4.895Y-4.66
X4.995Y-4.315
X4.995Y-4.415
X4.995Y-4.56
X4.995Y-4.66
X5.095Y-4.315
X5.095Y-4.415
X5.095Y-4.56
X5.095Y-4.66
X5.71Y-4.565
X5.71Y-4.665
X5.81Y-4.565
X5.81Y-4.665
X5.91Y-4.565
X5.91Y-4.665
X6.055Y-4.565
X6.055Y-4.665
X6.155Y-4.565
X6.155Y-4.665
X6.255Y-4.565
X6.255Y-4.665
X6.2668Y-3.8
X6.2668Y-3.9
X6.2668Y-4.0
X6.2668Y-4.1
T4
X4.764Y-2.96
X4.9609Y-2.96
X5.1869Y-2.96
X5.3838Y-2.96
X5.61Y-2.96
X5.8069Y-2.96
X6.033Y-2.96
X6.2299Y-2.96
T5
X5.455Y-4.23
X5.9706Y-4.0708
T2
G00X4.5236Y-3.6055
M15
G01X4.4921Y-3.6055
M16
G05
G00X4.5236Y-3.9457
M15
G01X4.4921Y-3.9457
M16
G05
G00X4.6941Y-3.6055
M15
G01X4.6508Y-3.6055
M16
G05
G00X4.6941Y-3.9457
M15
G01X4.6508Y-3.9457
M16
G05
M30
