%TF.GenerationSoftware,KiCad,Pcbnew,10.0.5*%
%TF.CreationDate,2026-09-27T09:50:34+09:00*%
%TF.ProjectId,FlexLogicMini_EVB,466c6578-4c6f-4676-9963-4d696e695f45,rev?*%
%TF.SameCoordinates,Original*%
%TF.FileFunction,Paste,Top*%
%TF.FilePolarity,Positive*%
%FSLAX46Y46*%
G04 Gerber Fmt 4.6, Leading zero omitted, Abs format (unit mm)*
G04 Created by KiCad (PCBNEW 10.0.5) date 2026-09-27 09:50:34*
%MOMM*%
%LPD*%
G01*
G04 APERTURE LIST*
G04 Aperture macros list*
%AMRoundRect*
0 Rectangle with rounded corners*
0 $1 Rounding radius*
0 $2 $3 $4 $5 $6 $7 $8 $9 X,Y pos of 4 corners*
0 Add a 4 corners polygon primitive as box body*
4,1,4,$2,$3,$4,$5,$6,$7,$8,$9,$2,$3,0*
0 Add four circle primitives for the rounded corners*
1,1,$1+$1,$2,$3*
1,1,$1+$1,$4,$5*
1,1,$1+$1,$6,$7*
1,1,$1+$1,$8,$9*
0 Add four rect primitives between the rounded corners*
20,1,$1+$1,$2,$3,$4,$5,0*
20,1,$1+$1,$4,$5,$6,$7,0*
20,1,$1+$1,$6,$7,$8,$9,0*
20,1,$1+$1,$8,$9,$2,$3,0*%
G04 Aperture macros list end*
%ADD10C,0.000000*%
%ADD11RoundRect,0.140000X-0.170000X0.140000X-0.170000X-0.140000X0.170000X-0.140000X0.170000X0.140000X0*%
%ADD12RoundRect,0.140000X0.170000X-0.140000X0.170000X0.140000X-0.170000X0.140000X-0.170000X-0.140000X0*%
%ADD13RoundRect,0.140000X-0.140000X-0.170000X0.140000X-0.170000X0.140000X0.170000X-0.140000X0.170000X0*%
%ADD14RoundRect,0.140000X0.140000X0.170000X-0.140000X0.170000X-0.140000X-0.170000X0.140000X-0.170000X0*%
%ADD15RoundRect,0.135000X-0.185000X0.135000X-0.185000X-0.135000X0.185000X-0.135000X0.185000X0.135000X0*%
%ADD16RoundRect,0.135000X0.135000X0.185000X-0.135000X0.185000X-0.135000X-0.185000X0.135000X-0.185000X0*%
%ADD17RoundRect,0.135000X0.185000X-0.135000X0.185000X0.135000X-0.185000X0.135000X-0.185000X-0.135000X0*%
%ADD18RoundRect,0.150000X-0.200000X0.150000X-0.200000X-0.150000X0.200000X-0.150000X0.200000X0.150000X0*%
%ADD19R,0.424994X0.389992*%
%ADD20R,1.200000X1.100000*%
%ADD21R,1.240000X0.600000*%
%ADD22R,1.240000X0.300000*%
%ADD23R,1.050000X0.650000*%
%ADD24RoundRect,0.075000X-0.700000X-0.075000X0.700000X-0.075000X0.700000X0.075000X-0.700000X0.075000X0*%
%ADD25RoundRect,0.075000X-0.075000X-0.700000X0.075000X-0.700000X0.075000X0.700000X-0.075000X0.700000X0*%
%ADD26R,0.600000X0.275006*%
%ADD27R,1.000000X0.300000*%
%ADD28R,0.300000X1.000000*%
%ADD29RoundRect,0.160000X-0.222500X-0.160000X0.222500X-0.160000X0.222500X0.160000X-0.222500X0.160000X0*%
%ADD30R,1.200000X0.250000*%
%ADD31RoundRect,0.135000X-0.135000X-0.185000X0.135000X-0.185000X0.135000X0.185000X-0.135000X0.185000X0*%
%ADD32RoundRect,0.249999X-0.395001X-0.395001X0.395001X-0.395001X0.395001X0.395001X-0.395001X0.395001X0*%
%ADD33RoundRect,0.050000X-0.450000X-0.050000X0.450000X-0.050000X0.450000X0.050000X-0.450000X0.050000X0*%
%ADD34RoundRect,0.050000X-0.455000X-0.050000X0.455000X-0.050000X0.455000X0.050000X-0.455000X0.050000X0*%
%ADD35RoundRect,0.052500X-0.447500X-0.052500X0.447500X-0.052500X0.447500X0.052500X-0.447500X0.052500X0*%
%ADD36RoundRect,0.052500X-0.052500X-0.447500X0.052500X-0.447500X0.052500X0.447500X-0.052500X0.447500X0*%
%ADD37RoundRect,0.050000X-0.050000X-0.450000X0.050000X-0.450000X0.050000X0.450000X-0.050000X0.450000X0*%
%ADD38RoundRect,0.050000X-0.050000X-0.455000X0.050000X-0.455000X0.050000X0.455000X-0.050000X0.455000X0*%
G04 APERTURE END LIST*
D10*
%TO.C,J1*%
G36*
X119920000Y-93000000D02*
G01*
X118680000Y-93000000D01*
X118680000Y-92400000D01*
X119920000Y-92400000D01*
X119920000Y-93000000D01*
G37*
G36*
X119920000Y-93800000D02*
G01*
X118680000Y-93800000D01*
X118680000Y-93200000D01*
X119920000Y-93200000D01*
X119920000Y-93800000D01*
G37*
G36*
X119920000Y-94300000D02*
G01*
X118680000Y-94300000D01*
X118680000Y-94000000D01*
X119920000Y-94000000D01*
X119920000Y-94300000D01*
G37*
G36*
X119920000Y-94800000D02*
G01*
X118680000Y-94800000D01*
X118680000Y-94500000D01*
X119920000Y-94500000D01*
X119920000Y-94800000D01*
G37*
G36*
X119920000Y-95300000D02*
G01*
X118680000Y-95300000D01*
X118680000Y-95000000D01*
X119920000Y-95000000D01*
X119920000Y-95300000D01*
G37*
G36*
X119920000Y-95800000D02*
G01*
X118680000Y-95800000D01*
X118680000Y-95500000D01*
X119920000Y-95500000D01*
X119920000Y-95800000D01*
G37*
G36*
X119920000Y-96300000D02*
G01*
X118680000Y-96300000D01*
X118680000Y-96000000D01*
X119920000Y-96000000D01*
X119920000Y-96300000D01*
G37*
G36*
X119920000Y-96800000D02*
G01*
X118680000Y-96800000D01*
X118680000Y-96500000D01*
X119920000Y-96500000D01*
X119920000Y-96800000D01*
G37*
G36*
X119920000Y-97300000D02*
G01*
X118680000Y-97300000D01*
X118680000Y-97000000D01*
X119920000Y-97000000D01*
X119920000Y-97300000D01*
G37*
G36*
X119920000Y-97800000D02*
G01*
X118680000Y-97800000D01*
X118680000Y-97500000D01*
X119920000Y-97500000D01*
X119920000Y-97800000D01*
G37*
G36*
X119920000Y-98600000D02*
G01*
X118680000Y-98600000D01*
X118680000Y-98000000D01*
X119920000Y-98000000D01*
X119920000Y-98600000D01*
G37*
G36*
X119920000Y-99400000D02*
G01*
X118680000Y-99400000D01*
X118680000Y-98800000D01*
X119920000Y-98800000D01*
X119920000Y-99400000D01*
G37*
G36*
X114925000Y-91081000D02*
G01*
X114950000Y-91082000D01*
X114974000Y-91086000D01*
X114999000Y-91090000D01*
X115023000Y-91095000D01*
X115047000Y-91102000D01*
X115071000Y-91110000D01*
X115094000Y-91119000D01*
X115117000Y-91129000D01*
X115139000Y-91141000D01*
X115161000Y-91153000D01*
X115182000Y-91167000D01*
X115202000Y-91181000D01*
X115221000Y-91197000D01*
X115240000Y-91213000D01*
X115258000Y-91231000D01*
X115275000Y-91249000D01*
X115291000Y-91268000D01*
X115306000Y-91288000D01*
X115320000Y-91309000D01*
X115333000Y-91330000D01*
X115345000Y-91352000D01*
X115356000Y-91374000D01*
X115365000Y-91397000D01*
X115374000Y-91421000D01*
X115381000Y-91445000D01*
X115387000Y-91469000D01*
X115392000Y-91493000D01*
X115396000Y-91518000D01*
X115399000Y-91543000D01*
X115400000Y-91567000D01*
X115400000Y-91592000D01*
X115399000Y-91617000D01*
X115396000Y-91642000D01*
X115392000Y-91667000D01*
X115387000Y-91691000D01*
X115381000Y-91715000D01*
X115374000Y-91739000D01*
X115365000Y-91763000D01*
X115356000Y-91786000D01*
X115345000Y-91808000D01*
X115333000Y-91830000D01*
X115320000Y-91851000D01*
X115306000Y-91872000D01*
X115291000Y-91892000D01*
X115275000Y-91911000D01*
X115258000Y-91929000D01*
X115240000Y-91946000D01*
X115221000Y-91963000D01*
X115202000Y-91979000D01*
X115182000Y-91993000D01*
X115161000Y-92007000D01*
X115139000Y-92019000D01*
X115117000Y-92030000D01*
X115094000Y-92041000D01*
X115071000Y-92050000D01*
X115047000Y-92058000D01*
X115023000Y-92065000D01*
X114999000Y-92070000D01*
X114974000Y-92074000D01*
X114950000Y-92078000D01*
X114925000Y-92079000D01*
X114900000Y-92080000D01*
X114100000Y-92080000D01*
X114075000Y-92079000D01*
X114050000Y-92078000D01*
X114025000Y-92074000D01*
X114001000Y-92070000D01*
X113977000Y-92065000D01*
X113953000Y-92058000D01*
X113929000Y-92050000D01*
X113906000Y-92041000D01*
X113883000Y-92030000D01*
X113861000Y-92019000D01*
X113839000Y-92007000D01*
X113818000Y-91993000D01*
X113798000Y-91979000D01*
X113779000Y-91963000D01*
X113760000Y-91946000D01*
X113742000Y-91929000D01*
X113725000Y-91911000D01*
X113709000Y-91892000D01*
X113694000Y-91872000D01*
X113680000Y-91851000D01*
X113667000Y-91830000D01*
X113655000Y-91808000D01*
X113644000Y-91786000D01*
X113634000Y-91763000D01*
X113626000Y-91739000D01*
X113619000Y-91715000D01*
X113612000Y-91691000D01*
X113607000Y-91667000D01*
X113604000Y-91642000D01*
X113601000Y-91617000D01*
X113600000Y-91592000D01*
X113600000Y-91567000D01*
X113601000Y-91543000D01*
X113604000Y-91518000D01*
X113607000Y-91493000D01*
X113612000Y-91469000D01*
X113619000Y-91445000D01*
X113626000Y-91421000D01*
X113634000Y-91397000D01*
X113644000Y-91374000D01*
X113655000Y-91352000D01*
X113667000Y-91330000D01*
X113680000Y-91309000D01*
X113694000Y-91288000D01*
X113709000Y-91268000D01*
X113725000Y-91249000D01*
X113742000Y-91231000D01*
X113760000Y-91213000D01*
X113779000Y-91197000D01*
X113798000Y-91181000D01*
X113818000Y-91167000D01*
X113839000Y-91153000D01*
X113861000Y-91141000D01*
X113883000Y-91129000D01*
X113906000Y-91119000D01*
X113929000Y-91110000D01*
X113953000Y-91102000D01*
X113977000Y-91095000D01*
X114001000Y-91090000D01*
X114025000Y-91086000D01*
X114050000Y-91082000D01*
X114075000Y-91081000D01*
X114100000Y-91080000D01*
X114900000Y-91080000D01*
X114925000Y-91081000D01*
G37*
G36*
X114925000Y-99721000D02*
G01*
X114950000Y-99723000D01*
X114974000Y-99726000D01*
X114999000Y-99730000D01*
X115023000Y-99736000D01*
X115047000Y-99742000D01*
X115071000Y-99750000D01*
X115094000Y-99759000D01*
X115117000Y-99770000D01*
X115139000Y-99781000D01*
X115161000Y-99793000D01*
X115182000Y-99807000D01*
X115202000Y-99822000D01*
X115221000Y-99837000D01*
X115240000Y-99854000D01*
X115258000Y-99871000D01*
X115275000Y-99889000D01*
X115291000Y-99908000D01*
X115306000Y-99928000D01*
X115320000Y-99949000D01*
X115333000Y-99970000D01*
X115345000Y-99992000D01*
X115356000Y-100014000D01*
X115365000Y-100037000D01*
X115374000Y-100061000D01*
X115381000Y-100085000D01*
X115387000Y-100109000D01*
X115392000Y-100133000D01*
X115396000Y-100158000D01*
X115399000Y-100183000D01*
X115400000Y-100208000D01*
X115400000Y-100233000D01*
X115399000Y-100257000D01*
X115396000Y-100282000D01*
X115392000Y-100307000D01*
X115387000Y-100331000D01*
X115381000Y-100355000D01*
X115374000Y-100379000D01*
X115365000Y-100403000D01*
X115356000Y-100426000D01*
X115345000Y-100448000D01*
X115333000Y-100470000D01*
X115320000Y-100491000D01*
X115306000Y-100512000D01*
X115291000Y-100532000D01*
X115275000Y-100551000D01*
X115258000Y-100569000D01*
X115240000Y-100587000D01*
X115221000Y-100603000D01*
X115202000Y-100619000D01*
X115182000Y-100633000D01*
X115161000Y-100647000D01*
X115139000Y-100659000D01*
X115117000Y-100671000D01*
X115094000Y-100681000D01*
X115071000Y-100690000D01*
X115047000Y-100698000D01*
X115023000Y-100705000D01*
X114999000Y-100710000D01*
X114974000Y-100714000D01*
X114950000Y-100718000D01*
X114925000Y-100719000D01*
X114900000Y-100720000D01*
X114100000Y-100720000D01*
X114075000Y-100719000D01*
X114050000Y-100718000D01*
X114025000Y-100714000D01*
X114001000Y-100710000D01*
X113977000Y-100705000D01*
X113953000Y-100698000D01*
X113929000Y-100690000D01*
X113906000Y-100681000D01*
X113883000Y-100671000D01*
X113861000Y-100659000D01*
X113839000Y-100647000D01*
X113818000Y-100633000D01*
X113798000Y-100619000D01*
X113779000Y-100603000D01*
X113760000Y-100587000D01*
X113742000Y-100569000D01*
X113725000Y-100551000D01*
X113709000Y-100532000D01*
X113694000Y-100512000D01*
X113680000Y-100491000D01*
X113667000Y-100470000D01*
X113655000Y-100448000D01*
X113644000Y-100426000D01*
X113634000Y-100403000D01*
X113626000Y-100379000D01*
X113619000Y-100355000D01*
X113612000Y-100331000D01*
X113607000Y-100307000D01*
X113604000Y-100282000D01*
X113601000Y-100257000D01*
X113600000Y-100233000D01*
X113600000Y-100208000D01*
X113601000Y-100183000D01*
X113604000Y-100158000D01*
X113607000Y-100133000D01*
X113612000Y-100109000D01*
X113619000Y-100085000D01*
X113626000Y-100061000D01*
X113634000Y-100037000D01*
X113644000Y-100014000D01*
X113655000Y-99992000D01*
X113667000Y-99970000D01*
X113680000Y-99949000D01*
X113694000Y-99928000D01*
X113709000Y-99908000D01*
X113725000Y-99889000D01*
X113742000Y-99871000D01*
X113760000Y-99854000D01*
X113779000Y-99837000D01*
X113798000Y-99822000D01*
X113818000Y-99807000D01*
X113839000Y-99793000D01*
X113861000Y-99781000D01*
X113883000Y-99770000D01*
X113906000Y-99759000D01*
X113929000Y-99750000D01*
X113953000Y-99742000D01*
X113977000Y-99736000D01*
X114001000Y-99730000D01*
X114025000Y-99726000D01*
X114050000Y-99723000D01*
X114075000Y-99721000D01*
X114100000Y-99720000D01*
X114900000Y-99720000D01*
X114925000Y-99721000D01*
G37*
G36*
X119255000Y-91081000D02*
G01*
X119280000Y-91082000D01*
X119305000Y-91086000D01*
X119329000Y-91090000D01*
X119353000Y-91095000D01*
X119377000Y-91102000D01*
X119401000Y-91110000D01*
X119424000Y-91119000D01*
X119447000Y-91129000D01*
X119469000Y-91141000D01*
X119491000Y-91153000D01*
X119512000Y-91167000D01*
X119532000Y-91181000D01*
X119551000Y-91197000D01*
X119570000Y-91213000D01*
X119588000Y-91231000D01*
X119605000Y-91249000D01*
X119621000Y-91268000D01*
X119636000Y-91288000D01*
X119650000Y-91309000D01*
X119663000Y-91330000D01*
X119675000Y-91352000D01*
X119686000Y-91374000D01*
X119695000Y-91397000D01*
X119704000Y-91421000D01*
X119711000Y-91445000D01*
X119717000Y-91469000D01*
X119722000Y-91493000D01*
X119726000Y-91518000D01*
X119729000Y-91543000D01*
X119730000Y-91567000D01*
X119730000Y-91592000D01*
X119729000Y-91617000D01*
X119726000Y-91642000D01*
X119722000Y-91667000D01*
X119717000Y-91691000D01*
X119711000Y-91715000D01*
X119704000Y-91739000D01*
X119695000Y-91763000D01*
X119686000Y-91786000D01*
X119675000Y-91808000D01*
X119663000Y-91830000D01*
X119650000Y-91851000D01*
X119636000Y-91872000D01*
X119621000Y-91892000D01*
X119605000Y-91911000D01*
X119588000Y-91929000D01*
X119570000Y-91946000D01*
X119551000Y-91963000D01*
X119532000Y-91979000D01*
X119512000Y-91993000D01*
X119491000Y-92007000D01*
X119469000Y-92019000D01*
X119447000Y-92030000D01*
X119424000Y-92041000D01*
X119401000Y-92050000D01*
X119377000Y-92058000D01*
X119353000Y-92065000D01*
X119329000Y-92070000D01*
X119305000Y-92074000D01*
X119280000Y-92078000D01*
X119255000Y-92079000D01*
X119230000Y-92080000D01*
X118130000Y-92080000D01*
X118105000Y-92079000D01*
X118080000Y-92078000D01*
X118055000Y-92074000D01*
X118031000Y-92070000D01*
X118007000Y-92065000D01*
X117983000Y-92058000D01*
X117959000Y-92050000D01*
X117936000Y-92041000D01*
X117913000Y-92030000D01*
X117891000Y-92019000D01*
X117869000Y-92007000D01*
X117848000Y-91993000D01*
X117828000Y-91979000D01*
X117809000Y-91963000D01*
X117790000Y-91946000D01*
X117772000Y-91929000D01*
X117755000Y-91911000D01*
X117739000Y-91892000D01*
X117724000Y-91872000D01*
X117710000Y-91851000D01*
X117697000Y-91830000D01*
X117685000Y-91808000D01*
X117674000Y-91786000D01*
X117665000Y-91763000D01*
X117656000Y-91739000D01*
X117649000Y-91715000D01*
X117642000Y-91691000D01*
X117638000Y-91667000D01*
X117634000Y-91642000D01*
X117631000Y-91617000D01*
X117630000Y-91592000D01*
X117630000Y-91567000D01*
X117631000Y-91543000D01*
X117634000Y-91518000D01*
X117638000Y-91493000D01*
X117642000Y-91469000D01*
X117649000Y-91445000D01*
X117656000Y-91421000D01*
X117665000Y-91397000D01*
X117674000Y-91374000D01*
X117685000Y-91352000D01*
X117697000Y-91330000D01*
X117710000Y-91309000D01*
X117724000Y-91288000D01*
X117739000Y-91268000D01*
X117755000Y-91249000D01*
X117772000Y-91231000D01*
X117790000Y-91213000D01*
X117809000Y-91197000D01*
X117828000Y-91181000D01*
X117848000Y-91167000D01*
X117869000Y-91153000D01*
X117891000Y-91141000D01*
X117913000Y-91129000D01*
X117936000Y-91119000D01*
X117959000Y-91110000D01*
X117983000Y-91102000D01*
X118007000Y-91095000D01*
X118031000Y-91090000D01*
X118055000Y-91086000D01*
X118080000Y-91082000D01*
X118105000Y-91081000D01*
X118130000Y-91080000D01*
X119230000Y-91080000D01*
X119255000Y-91081000D01*
G37*
G36*
X119255000Y-99721000D02*
G01*
X119280000Y-99723000D01*
X119305000Y-99726000D01*
X119329000Y-99730000D01*
X119353000Y-99736000D01*
X119377000Y-99742000D01*
X119401000Y-99750000D01*
X119424000Y-99759000D01*
X119447000Y-99770000D01*
X119469000Y-99781000D01*
X119491000Y-99793000D01*
X119512000Y-99807000D01*
X119532000Y-99822000D01*
X119551000Y-99837000D01*
X119570000Y-99854000D01*
X119588000Y-99871000D01*
X119605000Y-99889000D01*
X119621000Y-99908000D01*
X119636000Y-99928000D01*
X119650000Y-99949000D01*
X119663000Y-99970000D01*
X119675000Y-99992000D01*
X119686000Y-100014000D01*
X119695000Y-100037000D01*
X119704000Y-100061000D01*
X119711000Y-100085000D01*
X119717000Y-100109000D01*
X119722000Y-100133000D01*
X119726000Y-100158000D01*
X119729000Y-100183000D01*
X119730000Y-100208000D01*
X119730000Y-100233000D01*
X119729000Y-100257000D01*
X119726000Y-100282000D01*
X119722000Y-100307000D01*
X119717000Y-100331000D01*
X119711000Y-100355000D01*
X119704000Y-100379000D01*
X119695000Y-100403000D01*
X119686000Y-100426000D01*
X119675000Y-100448000D01*
X119663000Y-100470000D01*
X119650000Y-100491000D01*
X119636000Y-100512000D01*
X119621000Y-100532000D01*
X119605000Y-100551000D01*
X119588000Y-100569000D01*
X119570000Y-100587000D01*
X119551000Y-100603000D01*
X119532000Y-100619000D01*
X119512000Y-100633000D01*
X119491000Y-100647000D01*
X119469000Y-100659000D01*
X119447000Y-100671000D01*
X119424000Y-100681000D01*
X119401000Y-100690000D01*
X119377000Y-100698000D01*
X119353000Y-100705000D01*
X119329000Y-100710000D01*
X119305000Y-100714000D01*
X119280000Y-100718000D01*
X119255000Y-100719000D01*
X119230000Y-100720000D01*
X118130000Y-100720000D01*
X118105000Y-100719000D01*
X118080000Y-100718000D01*
X118055000Y-100714000D01*
X118031000Y-100710000D01*
X118007000Y-100705000D01*
X117983000Y-100698000D01*
X117959000Y-100690000D01*
X117936000Y-100681000D01*
X117913000Y-100671000D01*
X117891000Y-100659000D01*
X117869000Y-100647000D01*
X117848000Y-100633000D01*
X117828000Y-100619000D01*
X117809000Y-100603000D01*
X117790000Y-100587000D01*
X117772000Y-100569000D01*
X117755000Y-100551000D01*
X117739000Y-100532000D01*
X117724000Y-100512000D01*
X117710000Y-100491000D01*
X117697000Y-100470000D01*
X117685000Y-100448000D01*
X117674000Y-100426000D01*
X117665000Y-100403000D01*
X117656000Y-100379000D01*
X117649000Y-100355000D01*
X117642000Y-100331000D01*
X117638000Y-100307000D01*
X117634000Y-100282000D01*
X117631000Y-100257000D01*
X117630000Y-100233000D01*
X117630000Y-100208000D01*
X117631000Y-100183000D01*
X117634000Y-100158000D01*
X117638000Y-100133000D01*
X117642000Y-100109000D01*
X117649000Y-100085000D01*
X117656000Y-100061000D01*
X117665000Y-100037000D01*
X117674000Y-100014000D01*
X117685000Y-99992000D01*
X117697000Y-99970000D01*
X117710000Y-99949000D01*
X117724000Y-99928000D01*
X117739000Y-99908000D01*
X117755000Y-99889000D01*
X117772000Y-99871000D01*
X117790000Y-99854000D01*
X117809000Y-99837000D01*
X117828000Y-99822000D01*
X117848000Y-99807000D01*
X117869000Y-99793000D01*
X117891000Y-99781000D01*
X117913000Y-99770000D01*
X117936000Y-99759000D01*
X117959000Y-99750000D01*
X117983000Y-99742000D01*
X118007000Y-99736000D01*
X118031000Y-99730000D01*
X118055000Y-99726000D01*
X118080000Y-99723000D01*
X118105000Y-99721000D01*
X118130000Y-99720000D01*
X119230000Y-99720000D01*
X119255000Y-99721000D01*
G37*
%TD*%
D11*
%TO.C,C47*%
X147978000Y-105049000D03*
X147978000Y-106009000D03*
%TD*%
D12*
%TO.C,C69*%
X133878000Y-104529000D03*
X133878000Y-103569000D03*
%TD*%
D13*
%TO.C,C16*%
X123666500Y-98806000D03*
X124626500Y-98806000D03*
%TD*%
D11*
%TO.C,C52*%
X147058000Y-105049000D03*
X147058000Y-106009000D03*
%TD*%
D14*
%TO.C,C76*%
X137758000Y-101269000D03*
X136798000Y-101269000D03*
%TD*%
%TO.C,C22*%
X126859799Y-98872000D03*
X125899799Y-98872000D03*
%TD*%
D12*
%TO.C,C44*%
X149838000Y-99309000D03*
X149838000Y-98349000D03*
%TD*%
D15*
%TO.C,R35*%
X154498000Y-98489000D03*
X154498000Y-99509000D03*
%TD*%
D11*
%TO.C,C46*%
X134438000Y-93619000D03*
X134438000Y-94579000D03*
%TD*%
%TO.C,C64*%
X139788000Y-112499000D03*
X139788000Y-113459000D03*
%TD*%
D16*
%TO.C,R53*%
X133748000Y-109329000D03*
X132728000Y-109329000D03*
%TD*%
D17*
%TO.C,R37*%
X155658000Y-106679000D03*
X155658000Y-105659000D03*
%TD*%
D11*
%TO.C,C71*%
X138798000Y-112509000D03*
X138798000Y-113469000D03*
%TD*%
D18*
%TO.C,D1*%
X121031000Y-93472000D03*
X121031000Y-92072000D03*
%TD*%
D16*
%TO.C,R26*%
X154748000Y-107029000D03*
X153728000Y-107029000D03*
%TD*%
D19*
%TO.C,RN1*%
X128283222Y-91309000D03*
X128283222Y-90659012D03*
X129158000Y-90659012D03*
X129158000Y-91309000D03*
%TD*%
D11*
%TO.C,C50*%
X152848000Y-107809000D03*
X152848000Y-108769000D03*
%TD*%
D14*
%TO.C,C54*%
X134388000Y-92049000D03*
X133428000Y-92049000D03*
%TD*%
D12*
%TO.C,C33*%
X135808000Y-85699000D03*
X135808000Y-84739000D03*
%TD*%
D20*
%TO.C,U6*%
X134152000Y-84300000D03*
X132252000Y-84300000D03*
X132252000Y-85800000D03*
X134152000Y-85800000D03*
%TD*%
D16*
%TO.C,R54*%
X133908000Y-110359000D03*
X132888000Y-110359000D03*
%TD*%
D14*
%TO.C,C21*%
X126859799Y-99888000D03*
X125899799Y-99888000D03*
%TD*%
D12*
%TO.C,C75*%
X141768000Y-102719000D03*
X141768000Y-101759000D03*
%TD*%
D21*
%TO.C,J1*%
X119300000Y-92700000D03*
X119300000Y-93500000D03*
D22*
X119300000Y-94650000D03*
X119300000Y-95650000D03*
X119300000Y-96150000D03*
X119300000Y-97150000D03*
D21*
X119300000Y-99100000D03*
X119300000Y-98300000D03*
D22*
X119300000Y-97650000D03*
X119300000Y-96650000D03*
X119300000Y-95150000D03*
X119300000Y-94150000D03*
%TD*%
D14*
%TO.C,C65*%
X137848000Y-102819000D03*
X136888000Y-102819000D03*
%TD*%
D11*
%TO.C,C63*%
X138128000Y-114429000D03*
X138128000Y-115389000D03*
%TD*%
D23*
%TO.C,S1*%
X114214000Y-116078000D03*
X118364000Y-116078000D03*
X114214000Y-118228000D03*
X118364000Y-118228000D03*
%TD*%
D13*
%TO.C,C73*%
X143228000Y-104649000D03*
X144188000Y-104649000D03*
%TD*%
D12*
%TO.C,C26*%
X128358000Y-100849000D03*
X128358000Y-99889000D03*
%TD*%
D13*
%TO.C,C72*%
X143288000Y-108289000D03*
X144248000Y-108289000D03*
%TD*%
D24*
%TO.C,U7*%
X135970000Y-87765000D03*
X135970000Y-88265000D03*
X135970000Y-88765000D03*
X135970000Y-89265000D03*
X135970000Y-89765000D03*
X135970000Y-90265000D03*
X135970000Y-90765000D03*
X135970000Y-91265000D03*
X135970000Y-91765000D03*
X135970000Y-92265000D03*
X135970000Y-92765000D03*
X135970000Y-93265000D03*
X135970000Y-93765000D03*
X135970000Y-94265000D03*
X135970000Y-94765000D03*
X135970000Y-95265000D03*
D25*
X137895000Y-97190000D03*
X138395000Y-97190000D03*
X138895000Y-97190000D03*
X139395000Y-97190000D03*
X139895000Y-97190000D03*
X140395000Y-97190000D03*
X140895000Y-97190000D03*
X141395000Y-97190000D03*
X141895000Y-97190000D03*
X142395000Y-97190000D03*
X142895000Y-97190000D03*
X143395000Y-97190000D03*
X143895000Y-97190000D03*
X144395000Y-97190000D03*
X144895000Y-97190000D03*
X145395000Y-97190000D03*
D24*
X147320000Y-95265000D03*
X147320000Y-94765000D03*
X147320000Y-94265000D03*
X147320000Y-93765000D03*
X147320000Y-93265000D03*
X147320000Y-92765000D03*
X147320000Y-92265000D03*
X147320000Y-91765000D03*
X147320000Y-91265000D03*
X147320000Y-90765000D03*
X147320000Y-90265000D03*
X147320000Y-89765000D03*
X147320000Y-89265000D03*
X147320000Y-88765000D03*
X147320000Y-88265000D03*
X147320000Y-87765000D03*
D25*
X145395000Y-85840000D03*
X144895000Y-85840000D03*
X144395000Y-85840000D03*
X143895000Y-85840000D03*
X143395000Y-85840000D03*
X142895000Y-85840000D03*
X142395000Y-85840000D03*
X141895000Y-85840000D03*
X141395000Y-85840000D03*
X140895000Y-85840000D03*
X140395000Y-85840000D03*
X139895000Y-85840000D03*
X139395000Y-85840000D03*
X138895000Y-85840000D03*
X138395000Y-85840000D03*
X137895000Y-85840000D03*
%TD*%
D26*
%TO.C,RN2*%
X149328000Y-91269000D03*
X149328000Y-91769254D03*
X149328000Y-92269127D03*
X149328000Y-92769051D03*
X150327873Y-92769076D03*
X150327746Y-92269127D03*
X150327746Y-91769254D03*
X150327873Y-91269051D03*
%TD*%
D27*
%TO.C,IC4*%
X149128000Y-101648000D03*
X149128000Y-102148000D03*
X149128000Y-102648000D03*
X149128000Y-103148000D03*
X149128000Y-103648000D03*
X149128000Y-104148000D03*
X149128000Y-104648000D03*
X149128000Y-105148000D03*
D28*
X149903000Y-105923000D03*
X150403000Y-105923000D03*
X150903000Y-105923000D03*
X151403000Y-105923000D03*
X151903000Y-105923000D03*
X152403000Y-105923000D03*
X152903000Y-105923000D03*
X153403000Y-105923000D03*
D27*
X154178000Y-105148000D03*
X154178000Y-104648000D03*
X154178000Y-104148000D03*
X154178000Y-103648000D03*
X154178000Y-103148000D03*
X154178000Y-102648000D03*
X154178000Y-102148000D03*
X154178000Y-101648000D03*
D28*
X153403000Y-100873000D03*
X152903000Y-100873000D03*
X152403000Y-100873000D03*
X151903000Y-100873000D03*
X151403000Y-100873000D03*
X150903000Y-100873000D03*
X150403000Y-100873000D03*
X149903000Y-100873000D03*
%TD*%
D29*
%TO.C,D2*%
X112921000Y-89739000D03*
X114066000Y-89739000D03*
%TD*%
D30*
%TO.C,IC1*%
X124744299Y-94008000D03*
X124744299Y-94538000D03*
X124744299Y-95068000D03*
X124744299Y-95598000D03*
X124744299Y-96128000D03*
X124744299Y-96658000D03*
X124744299Y-97188000D03*
X124744299Y-97718000D03*
X128344299Y-97718000D03*
X128344299Y-97188000D03*
X128344299Y-96658000D03*
X128344299Y-96128000D03*
X128344299Y-95598000D03*
X128344299Y-95068000D03*
X128344299Y-94538000D03*
X128344299Y-94008000D03*
%TD*%
D20*
%TO.C,U3*%
X131751299Y-99612000D03*
X129851299Y-99612000D03*
X129851299Y-101112000D03*
X131751299Y-101112000D03*
%TD*%
D12*
%TO.C,C49*%
X145108000Y-84059000D03*
X145108000Y-83099000D03*
%TD*%
D14*
%TO.C,C70*%
X133728000Y-108359000D03*
X132768000Y-108359000D03*
%TD*%
D12*
%TO.C,C28*%
X133398000Y-100769000D03*
X133398000Y-99809000D03*
%TD*%
D15*
%TO.C,R33*%
X153548000Y-98489000D03*
X153548000Y-99509000D03*
%TD*%
D31*
%TO.C,R45*%
X136838000Y-112789000D03*
X137858000Y-112789000D03*
%TD*%
D17*
%TO.C,R30*%
X150778000Y-99339000D03*
X150778000Y-98319000D03*
%TD*%
D15*
%TO.C,R31*%
X152578000Y-97319000D03*
X152578000Y-98339000D03*
%TD*%
D12*
%TO.C,C39*%
X130838000Y-85559000D03*
X130838000Y-84599000D03*
%TD*%
D31*
%TO.C,R49*%
X143258000Y-107259000D03*
X144278000Y-107259000D03*
%TD*%
D19*
%TO.C,RN3*%
X128288000Y-93058988D03*
X128288000Y-92409000D03*
X129162778Y-92409000D03*
X129162778Y-93058988D03*
%TD*%
D11*
%TO.C,C45*%
X146348000Y-84799000D03*
X146348000Y-85759000D03*
%TD*%
D16*
%TO.C,R19*%
X116035500Y-89749000D03*
X115015500Y-89749000D03*
%TD*%
D11*
%TO.C,C61*%
X133098000Y-114469000D03*
X133098000Y-115429000D03*
%TD*%
D20*
%TO.C,U8*%
X134747000Y-115800000D03*
X136647000Y-115800000D03*
X136647000Y-114300000D03*
X134747000Y-114300000D03*
%TD*%
D12*
%TO.C,C38*%
X155248000Y-101409000D03*
X155248000Y-100449000D03*
%TD*%
D16*
%TO.C,R41*%
X134468500Y-90170000D03*
X133448500Y-90170000D03*
%TD*%
D13*
%TO.C,C36*%
X155338000Y-104719000D03*
X156298000Y-104719000D03*
%TD*%
D17*
%TO.C,R25*%
X149968000Y-108369000D03*
X149968000Y-107349000D03*
%TD*%
D32*
%TO.C,U10*%
X137757000Y-106642000D03*
X137757000Y-108242000D03*
X139357000Y-106642000D03*
X139357000Y-108242000D03*
D33*
X135057000Y-104842000D03*
D34*
X135057000Y-105242000D03*
D33*
X135057000Y-105642000D03*
X135057000Y-106042000D03*
D35*
X135057000Y-106447000D03*
D33*
X135057000Y-106842000D03*
X135057000Y-107242000D03*
X135057000Y-107642000D03*
X135057000Y-108042000D03*
X135057000Y-108442000D03*
X135057000Y-108842000D03*
X135057000Y-109242000D03*
X135057000Y-109642000D03*
X135057000Y-110042000D03*
D36*
X135962000Y-110942000D03*
D37*
X136357000Y-110942000D03*
X136757000Y-110942000D03*
X137157000Y-110942000D03*
X137557000Y-110942000D03*
X137957000Y-110942000D03*
X138357000Y-110942000D03*
X138757000Y-110942000D03*
X139157000Y-110942000D03*
X139557000Y-110942000D03*
X139957000Y-110942000D03*
X140357000Y-110942000D03*
X140757000Y-110942000D03*
X141157000Y-110942000D03*
D33*
X142057000Y-110042000D03*
X142057000Y-109642000D03*
X142057000Y-109242000D03*
X142057000Y-108842000D03*
X142057000Y-108442000D03*
X142057000Y-108042000D03*
X142057000Y-107642000D03*
X142057000Y-107242000D03*
X142057000Y-106842000D03*
X142057000Y-106442000D03*
X142057000Y-106042000D03*
X142057000Y-105642000D03*
X142057000Y-105242000D03*
X142057000Y-104842000D03*
D37*
X141157000Y-103937000D03*
X140757000Y-103937000D03*
X140357000Y-103937000D03*
X139957000Y-103937000D03*
X139557000Y-103937000D03*
X139157000Y-103937000D03*
X138757000Y-103937000D03*
X138357000Y-103937000D03*
X137957000Y-103937000D03*
X137557000Y-103937000D03*
X137157000Y-103937000D03*
X136757000Y-103937000D03*
X136357000Y-103937000D03*
D38*
X135957000Y-103937000D03*
%TD*%
M02*
